<?xml version="1.0" standalone="no"?>
<!DOCTYPE svg PUBLIC "-//W3C//DTD SVG 20010904//EN"
 "http://www.w3.org/TR/2001/REC-SVG-20010904/DTD/svg10.dtd">
<svg version="1.0" xmlns="http://www.w3.org/2000/svg"
 width="32.000000pt" height="32.000000pt" viewBox="0 0 32.000000 32.000000"
 preserveAspectRatio="xMidYMid meet">
<metadata>
Created by potrace 1.10, written by Peter Selinger 2001-2011
</metadata>
<g transform="translate(0.000000,32.000000) scale(0.100000,-0.100000)"
fill="#000000" stroke="none">
<path d="M69 287 c-38 -26 -54 -54 -63 -112 -5 -36 -4 -37 6 -15 6 14 10 30 9
37 -1 7 17 15 43 18 25 4 50 13 56 20 9 11 7 12 -9 8 -17 -4 -21 -1 -21 20 0
20 4 24 20 20 14 -4 20 0 20 11 0 22 -21 20 -61 -7z"/>
<path d="M182 298 c3 -7 11 -13 19 -14 37 -3 38 -4 33 -34 -6 -26 -3 -30 22
-36 16 -3 35 -13 42 -22 11 -14 12 -14 12 4 0 30 -36 81 -69 99 -36 18 -64 20
-59 3z"/>
<path d="M230 205 c0 -5 14 -24 32 -42 l32 -33 -22 -38 c-14 -25 -27 -36 -39
-33 -10 1 -43 4 -74 5 -44 1 -65 7 -97 30 -24 16 -45 26 -48 23 -9 -9 24 -64
48 -81 35 -25 42 -19 11 9 l-28 26 37 -21 c20 -12 39 -27 42 -35 8 -22 63 -18
85 4 13 13 21 16 24 8 2 -7 19 4 40 25 26 28 35 46 35 73 0 20 -4 32 -10 29
-5 -3 -23 9 -39 27 -16 18 -29 29 -29 24z m-49 -167 c16 0 29 -3 29 -8 0 -16
-49 -23 -65 -10 -18 15 -20 34 -4 24 7 -4 25 -7 40 -6z"/>
<path d="M133 154 c-8 -23 9 -47 40 -58 21 -8 31 -6 47 9 29 27 25 40 -19 53
-51 16 -60 15 -68 -4z"/>
</g>
</svg>
