<?xml version="1.0" encoding="UTF-8"?>
<svg version="1.1" xmlns="http://www.w3.org/2000/svg" width="32" height="32">
<path d="M0 0 C4.42093515 2.41436137 7.39876978 5.19630934 9 10 C9.48988853 15.56545491 9.76814541 20.40680952 7.3125 25.5 C1.56321512 31.71544311 1.56321512 31.71544311 -3.3046875 32.6015625 C-14.13042157 32.67262859 -14.13042157 32.67262859 -18.25 29.1875 C-23.26962519 23.94794278 -23.59344135 19.63353796 -23.52734375 12.5390625 C-22.73194587 7.20105896 -20.16429953 4.26925777 -16 1 C-11.26301522 -1.36849239 -5.10904291 -0.69795668 0 0 Z " fill="#AD9686" transform="translate(23,0)"/>
<path d="M0 0 C3.11841678 4.67762517 2.58751827 9.52374948 2 15 C-0.12559303 19.40863739 -2.82958596 22.41831512 -7 25 C-10.0625 25.5 -10.0625 25.5 -13 25 C-15.375 23 -15.375 23 -17 21 C-14.69 21.33 -12.38 21.66 -10 22 C-10.04125 21.05125 -10.0825 20.1025 -10.125 19.125 C-10 16 -10 16 -8 14 C-7.35232207 11.42938689 -7.35232207 11.42938689 -7 9 C-11.455 8.01 -11.455 8.01 -16 7 C-15.01 5.68 -14.02 4.36 -13 3 C-9.62537285 3.54723683 -7.91765 4.0549 -5 6 C-2.35367713 5.6878236 -2.35367713 5.6878236 0 5 C0 3.35 0 1.7 0 0 Z " fill="#BCA997" transform="translate(30,7)"/>
<path d="M0 0 C0.33 0.66 0.66 1.32 1 2 C3.97 2 6.94 2 10 2 C9.67 3.65 9.34 5.3 9 7 C10.32 7 11.64 7 13 7 C13.268125 7.78375 13.53625 8.5675 13.8125 9.375 C14.84814432 12.28114923 14.84814432 12.28114923 18 14 C18 14.66 18 15.32 18 16 C9.42857143 17.42857143 9.42857143 17.42857143 6 15 C6 15.66 6 16.32 6 17 C6.804375 17.2475 7.60875 17.495 8.4375 17.75 C11 19 11 19 11.8125 21.125 C11.874375 21.74375 11.93625 22.3625 12 23 C6.88492218 22.31975649 4.65618336 20.55139567 1.3828125 16.67578125 C-1.30896499 11.46711576 -0.50385111 5.69431726 0 0 Z " fill="#BDB0A2" transform="translate(0,9)"/>
<path d="M0 0 C2.7654203 0.1929363 4.32795051 0.78924845 6.6875 2.1875 C5.94499403 6.27128283 4.85826699 10.20689223 3.6875 14.1875 C1.7075 14.1875 -0.2725 14.1875 -2.3125 14.1875 C-1.3225 15.1775 -0.3325 16.1675 0.6875 17.1875 C-0.9625 17.1875 -2.6125 17.1875 -4.3125 17.1875 C-4.6425 16.1975 -4.9725 15.2075 -5.3125 14.1875 C-6.116875 13.713125 -6.92125 13.23875 -7.75 12.75 C-10.46916889 11.09197019 -11.20657115 10.10313061 -12.3125 7.1875 C-11.2296875 7.6515625 -11.2296875 7.6515625 -10.125 8.125 C-6.02894188 9.67239973 -2.70122233 10.1875 1.6875 10.1875 C1.6875 9.5275 1.6875 8.8675 1.6875 8.1875 C1.048125 7.960625 0.40875 7.73375 -0.25 7.5 C-2.3125 6.1875 -2.3125 6.1875 -3.125 3.625 C-3.186875 2.820625 -3.24875 2.01625 -3.3125 1.1875 C-2.3125 0.1875 -2.3125 0.1875 0 0 Z " fill="#563F41" transform="translate(16.3125,14.8125)"/>
<path d="M0 0 C0.33 0.66 0.66 1.32 1 2 C3.97 2 6.94 2 10 2 C9.67 3.65 9.34 5.3 9 7 C10.32 7 11.64 7 13 7 C13.268125 7.78375 13.53625 8.5675 13.8125 9.375 C14.84814432 12.28114923 14.84814432 12.28114923 18 14 C18 14.66 18 15.32 18 16 C12.71502591 17.05699482 12.71502591 17.05699482 10 17 C7.5 15.0625 7.5 15.0625 6 13 C7.32 13 8.64 13 10 13 C10.33 11.68 10.66 10.36 11 9 C10.01 9 9.02 9 8 9 C8 8.34 8 7.68 8 7 C5.69 6.67 3.38 6.34 1 6 C0.67 6.66 0.34 7.32 0 8 C0 5.36 0 2.72 0 0 Z " fill="#B8A999" transform="translate(0,9)"/>
<path d="M0 0 C0.66 0 1.32 0 2 0 C1.34 1.65 0.68 3.3 0 5 C0.66 5.33 1.32 5.66 2 6 C0.29171079 8.10633718 -0.52148416 8.93801608 -3.26171875 9.29296875 C-4.06222656 9.25816406 -4.86273438 9.22335937 -5.6875 9.1875 C-6.89986328 9.14689453 -6.89986328 9.14689453 -8.13671875 9.10546875 C-8.75160156 9.07066406 -9.36648438 9.03585937 -10 9 C-9.64005447 6.3364031 -9.28838998 4.41816548 -7.75 2.1875 C-5.42246177 0.60809906 -3.75626382 0.85493348 -1 1 C-0.67 0.67 -0.34 0.34 0 0 Z " fill="#947C70" transform="translate(11,2)"/>
<path d="M0 0 C4.37653129 0.47620289 6.06538005 1.66899889 8.8125 5.0625 C9.41707031 5.79597656 10.02164062 6.52945312 10.64453125 7.28515625 C11.09183594 7.85105469 11.53914063 8.41695312 12 9 C10.125 13.75 10.125 13.75 9 16 C8.34 16 7.68 16 7 16 C6.96261719 15.37351562 6.92523438 14.74703125 6.88671875 14.1015625 C6.82097656 13.28429688 6.75523438 12.46703125 6.6875 11.625 C6.62949219 10.81289063 6.57148438 10.00078125 6.51171875 9.1640625 C6.17009472 6.62078662 6.17009472 6.62078662 3 5 C1.0103005 4.60986284 -0.99019869 4.26797351 -3 4 C-2.01 2.68 -1.02 1.36 0 0 Z " fill="#F1ECD9" transform="translate(17,10)"/>
<path d="M0 0 C2.375 -0.125 2.375 -0.125 5 0 C7 2 7 2 7.125 5.125 C7.08375 6.07375 7.0425 7.0225 7 8 C5.02 8.66 3.04 9.32 1 10 C-1 8 -1 8 -1.125 5.375 C-1.08375 4.59125 -1.0425 3.8075 -1 3 C-1.66 2.67 -2.32 2.34 -3 2 C-2.01 2 -1.02 2 0 2 C0 1.34 0 0.68 0 0 Z " fill="#A68D7D" transform="translate(23,4)"/>
<path d="M0 0 C2.00720923 0.28674418 4.0085944 0.61866701 6 1 C5.67 1.99 5.34 2.98 5 4 C4.195625 4.144375 3.39125 4.28875 2.5625 4.4375 C0.07896294 4.74135249 0.07896294 4.74135249 -1 6 C0.423125 6.433125 0.423125 6.433125 1.875 6.875 C5 8 5 8 7 10 C6.11248047 9.89171875 6.11248047 9.89171875 5.20703125 9.78125 C1.11738278 9.30089977 -2.8738531 8.86689849 -7 9 C-6.8125 6.125 -6.8125 6.125 -6 3 C-3.5 1.6875 -3.5 1.6875 -1 1 C-0.67 0.67 -0.34 0.34 0 0 Z " fill="#B8AAA0" transform="translate(16,7)"/>
<path d="M0 0 C2.35119399 3.52679099 2.21443452 5.02879485 2.125 9.1875 C2.10695313 10.27417969 2.08890625 11.36085938 2.0703125 12.48046875 C2.03550781 13.72763672 2.03550781 13.72763672 2 15 C1.01 15.33 0.02 15.66 -1 16 C-1.268125 15.2575 -1.53625 14.515 -1.8125 13.75 C-2.94229421 11.13363446 -4.20893202 9.19812889 -6 7 C-3 5 -3 5 0 5 C0 3.35 0 1.7 0 0 Z " fill="#D2BEA7" transform="translate(30,7)"/>
<path d="M0 0 C3.62528568 -0.20140476 5.86501708 0.14223235 9 2 C8.67 3.65 8.34 5.3 8 7 C4.625 7.125 4.625 7.125 1 7 C0.34 6.34 -0.32 5.68 -1 5 C-0.625 2.375 -0.625 2.375 0 0 Z " fill="#261F20" transform="translate(14,15)"/>
<path d="M0 0 C1.65 0 3.3 0 5 0 C5 1.66666667 5 3.33333333 5 5 C5.804375 5.2475 6.60875 5.495 7.4375 5.75 C10 7 10 7 10.8125 9.125 C10.874375 9.74375 10.93625 10.3625 11 11 C7.49053006 10.69918829 6.02211769 10.0180963 3.25 7.75 C0.9819037 4.97788231 0.30081171 3.50946994 0 0 Z " fill="#A79281" transform="translate(1,21)"/>
<path d="M0 0 C1.22589844 -0.02835938 2.45179687 -0.05671875 3.71484375 -0.0859375 C7.57120319 0.44504315 8.69495809 1.37255337 11.0625 4.375 C9.0825 4.705 7.1025 5.035 5.0625 5.375 C5.0625 4.055 5.0625 2.735 5.0625 1.375 C3.4368193 1.68393932 1.81197252 1.9972695 0.1875 2.3125 C-0.71742187 2.48652344 -1.62234375 2.66054688 -2.5546875 2.83984375 C-4.93706317 3.27463701 -4.93706317 3.27463701 -6.9375 4.375 C-7.9275 3.715 -8.9175 3.055 -9.9375 2.375 C-6.29344748 -0.05436835 -4.338683 0.04552658 0 0 Z " fill="#BAA391" transform="translate(15.9375,-0.375)"/>
<path d="M0 0 C0.33 0.66 0.66 1.32 1 2 C3.97 2 6.94 2 10 2 C8.515 4.475 8.515 4.475 7 7 C4.03 6.505 4.03 6.505 1 6 C0.67 6.66 0.34 7.32 0 8 C0 5.36 0 2.72 0 0 Z " fill="#A89385" transform="translate(0,9)"/>
<path d="M0 0 C1 2 2 4 3 6 C2.34 6 1.68 6 1 6 C1 7.32 1 8.64 1 10 C-2.375 9.6875 -2.375 9.6875 -6 9 C-6.66 8.01 -7.32 7.02 -8 6 C-5.69 6.33 -3.38 6.66 -1 7 C-1.020625 6.030625 -1.04125 5.06125 -1.0625 4.0625 C-1 1 -1 1 0 0 Z " fill="#A0857D" transform="translate(21,22)"/>
<path d="M0 0 C2.0625 0.4375 2.0625 0.4375 4 1 C4.33 2.65 4.66 4.3 5 6 C2.69 6 0.38 6 -2 6 C-1.125 1.125 -1.125 1.125 0 0 Z " fill="#454538" transform="translate(4,4)"/>
<path d="M0 0 C2.375 0.3125 2.375 0.3125 5 1 C5.66 1.99 6.32 2.98 7 4 C6.67 4.66 6.34 5.32 6 6 C1.545 5.01 1.545 5.01 -3 4 C-2.01 2.68 -1.02 1.36 0 0 Z " fill="#E9E2D2" transform="translate(17,10)"/>
<path d="M0 0 C1.32 0 2.64 0 4 0 C4 1.65 4 3.3 4 5 C2.02 5 0.04 5 -2 5 C-1.125 1.125 -1.125 1.125 0 0 Z " fill="#4C4B3E" transform="translate(25,5)"/>
<path d="M0 0 C1.65 0.33 3.3 0.66 5 1 C4.54625 1.5775 4.0925 2.155 3.625 2.75 C2.15886484 4.7800333 1.05142216 6.73539843 0 9 C-1 8 -1 8 -1.125 5.0625 C-1 2 -1 2 0 0 Z " fill="#B5A394" transform="translate(1,15)"/>
<path d="M0 0 C2.97 0.495 2.97 0.495 6 1 C5.67 1.99 5.34 2.98 5 4 C3.824375 4.2165625 3.824375 4.2165625 2.625 4.4375 C0.03578982 4.87798925 0.03578982 4.87798925 -2 6 C-1.34 4.02 -0.68 2.04 0 0 Z " fill="#C8B9AE" transform="translate(16,7)"/>
<path d="M0 0 C1.65 0 3.3 0 5 0 C5.33 0.66 5.66 1.32 6 2 C4.68 2.33 3.36 2.66 2 3 C1.67 4.32 1.34 5.64 1 7 C0.34 6.34 -0.32 5.68 -1 5 C-0.625 2.375 -0.625 2.375 0 0 Z " fill="#4B3F3F" transform="translate(14,15)"/>
<path d="M0 0 C2.5 1.375 2.5 1.375 5 3 C5 3.66 5 4.32 5 5 C2.36 5.33 -0.28 5.66 -3 6 C-2.01 5.67 -1.02 5.34 0 5 C0 3.35 0 1.7 0 0 Z " fill="#A08C7F" transform="translate(13,20)"/>
<path d="M0 0 C2 3 2 3 1.625 5.6875 C1.41875 6.450625 1.2125 7.21375 1 8 C-1.97 7.505 -1.97 7.505 -5 7 C-4.34 6.34 -3.68 5.68 -3 5 C-2.01 5 -1.02 5 0 5 C0 3.35 0 1.7 0 0 Z " fill="#BEA592" transform="translate(30,7)"/>
<path d="M0 0 C0.66 0.33 1.32 0.66 2 1 C-1.465 3.97 -1.465 3.97 -5 7 C-5.33 5.68 -5.66 4.36 -6 3 C-5.195625 2.690625 -4.39125 2.38125 -3.5625 2.0625 C-1.10919595 1.23664655 -1.10919595 1.23664655 0 0 Z " fill="#CCBBA7" transform="translate(28,25)"/>
<path d="M0 0 C2.64 0.66 5.28 1.32 8 2 C8 2.66 8 3.32 8 4 C5.125 3.6875 5.125 3.6875 2 3 C1.34 2.01 0.68 1.02 0 0 Z " fill="#886166" transform="translate(13,28)"/>
<path d="M0 0 C0.33 0.66 0.66 1.32 1 2 C2.32 2 3.64 2 5 2 C5 3.32 5 4.64 5 6 C4.34 6 3.68 6 3 6 C3 5.34 3 4.68 3 4 C2.01 4 1.02 4 0 4 C-0.33 3.01 -0.66 2.02 -1 1 C-0.67 0.67 -0.34 0.34 0 0 Z " fill="#AF9F93" transform="translate(8,14)"/>
</svg>
